# xmcd CD database file
#
# Track frame offsets:
#	150
#	15916
#	30472
#	46228
#	61040
#	76939
#	91143
#	107802
#	125779
#	140683
#	156415
#	177003
#	200543
#
# Disc length: 2922 seconds
#
# Revision: 0
# Processed by: cddbd v1.5.2PL0 Copyright (c) Steve Scherf et al.
# Submitted via: CDex 1.70beta2
#
DISCID=a00b680d
DTITLE=Parov Stelar - The Demon Diaries cd 1
DYEAR=2015
DGENRE=Jazz
TTITLE0=parov stelar - demon dance
TTITLE1=parov stelar - keep this fire burning
TTITLE2=parov stelar - hooked on you_feat. timothy auld
TTITLE3=parov stelar - clap your hands
TTITLE4=parov stelar - hit me like a drum_feat. timothy auld
TTITLE5=parov stelar - the green frog
TTITLE6=parov stelar - i need l.o.v.e.
TTITLE7=parov stelar - djangos revenge
TTITLE8=parov stelar - gin tonic
TTITLE9=parov stelar - don't mean a thing
TTITLE10=parov stelar - josephine_feat. lee anduze (1930 version)
TTITLE11=parov stelar - berlin shuffle
TTITLE12=parov stelar - hit me like a drum_feat. timothy auld (club version)
EXTD=YEAR: 2015
EXTT0=
EXTT1=
EXTT2=
EXTT3=
EXTT4=
EXTT5=
EXTT6=
EXTT7=
EXTT8=
EXTT9=
EXTT10=
EXTT11=
EXTT12=
PLAYORDER=
